<svg version="1.2" baseProfile="tiny-ps" xmlns="http://www.w3.org/2000/svg" width="19" height="19"><style></style><g id="Graf A"><path id="Clock kopie" fill-rule="evenodd" d="M9.5 0C14.74 0 19 4.25 19 9.5c0 5.24-4.26 9.5-9.5 9.5C4.25 19 0 14.74 0 9.5 0 4.25 4.25 0 9.5 0zM1.89 9.5c0 4.2 3.41 7.6 7.61 7.6s7.6-3.4 7.6-7.6c0-4.2-3.4-7.59-7.6-7.59-4.2 0-7.61 3.39-7.61 7.59zm6.66-5.9c0-.54.39-.98.94-.98.54 0 .98.44.98.98v5.08l3.6.02c.54 0 .98.44.98.98s-.44.94-.98.94H9.49c-.55 0-.94-.4-.94-.94V3.6z" fill="#b3b3b3"/></g></svg>